<?xml version="1.0" encoding="UTF-8" standalone="no"?>
<!-- Created with Inkscape (http://www.inkscape.org/) -->
<svg
   xmlns:svg="http://www.w3.org/2000/svg"
   xmlns="http://www.w3.org/2000/svg"
   version="1.0"
   width="263"
   height="233"
   id="svg2440">
  <defs
     id="defs2443" />
  <path
     d="M 16.987807,196.73312 C 16.987807,196.73312 114.90427,27.985778 114.90427,27.985778 C 128.10992,4.0320078 134.48505,2.9886626 147.55626,27.985778 C 147.55626,27.985778 238.84825,187.41387 238.84825,187.41387 C 263.2221,228.90926 260.8198,223.0942 214.41021,223.0942 C 214.41021,223.0942 31.829735,223.0942 31.829735,223.0942 C 7.2552037,223.0942 2.5456939,226.13149 16.987807,196.73312 z"
     id="path2509"
     style="fill:#fbc904;fill-opacity:1;fill-rule:nonzero;stroke:#000000;stroke-width:12.05137253;stroke-linecap:square;stroke-linejoin:round;marker:none;marker-start:none;marker-mid:none;marker-end:none;stroke-miterlimit:4;stroke-opacity:1;visibility:visible;display:inline;overflow:visible;enable-background:accumulate" />
  <path
     d="M 121.28424,173.25941 L 131.29641,179.11943 C 131.29641,179.11943 139.38433,132.78974 139.38433,132.78974 C 139.38433,132.78974 103.0353,144.10737 103.0353,144.10737 L 116.83079,67.410626 C 116.83079,67.410626 137.6601,67.410626 137.6601,67.410626 C 137.6601,67.410626 120.14192,127.97677 120.14192,127.97677 C 120.14192,127.97677 157.15648,117.32467 157.15648,117.32467 C 157.15648,117.32467 142.00416,182.07623 142.00416,182.07623 L 153.79339,179.24934 L 131.66188,206.01402 L 121.28424,173.25941 z"
     id="path2453"
     style="fill:#080502" />
</svg>
