<?xml version="1.0" encoding="UTF-8" standalone="no"?>
<!-- Created with Inkscape (http://www.inkscape.org/) -->

<svg
   xmlns:dc="http://purl.org/dc/elements/1.1/"
   xmlns:cc="http://creativecommons.org/ns#"
   xmlns:rdf="http://www.w3.org/1999/02/22-rdf-syntax-ns#"
   xmlns:svg="http://www.w3.org/2000/svg"
   xmlns="http://www.w3.org/2000/svg"
   xmlns:sodipodi="http://sodipodi.sourceforge.net/DTD/sodipodi-0.dtd"
   xmlns:inkscape="http://www.inkscape.org/namespaces/inkscape"
   width="64px"
   height="64px"
   id="svg2997"
   version="1.1"
   inkscape:version="0.48.2 r9819"
   sodipodi:docname="searcher.svg">
  <defs
     id="defs2999" />
  <sodipodi:namedview
     id="base"
     pagecolor="#ffffff"
     bordercolor="#666666"
     borderopacity="1.0"
     inkscape:pageopacity="0.0"
     inkscape:pageshadow="2"
     inkscape:zoom="5.5"
     inkscape:cx="9.1818182"
     inkscape:cy="32"
     inkscape:current-layer="layer1"
     showgrid="true"
     inkscape:document-units="px"
     inkscape:grid-bbox="true"
     inkscape:window-width="991"
     inkscape:window-height="646"
     inkscape:window-x="171"
     inkscape:window-y="54"
     inkscape:window-maximized="0" />
  <metadata
     id="metadata3002">
    <rdf:RDF>
      <cc:Work
         rdf:about="">
        <dc:format>image/svg+xml</dc:format>
        <dc:type
           rdf:resource="http://purl.org/dc/dcmitype/StillImage" />
        <dc:title></dc:title>
      </cc:Work>
    </rdf:RDF>
  </metadata>
  <g
     id="layer1"
     inkscape:label="Layer 1"
     inkscape:groupmode="layer">
    <path
       sodipodi:type="arc"
       style="fill:#0000ff;stroke:#2b0000"
       id="path3005"
       sodipodi:cx="17.181818"
       sodipodi:cy="18.90909"
       sodipodi:rx="8.636364"
       sodipodi:ry="9.636364"
       d="m 25.818182,18.90909 a 8.636364,9.636364 0 1 1 -17.272728,0 8.636364,9.636364 0 1 1 17.272728,0 z"
       transform="translate(14.818182,13.09091)" />
    <path
       style="fill:#ff0000;stroke:#2b0000;stroke-width:0.18181818999999999"
       d="m 30.198449,40.826531 c -1.846406,-0.463212 -3.959766,-2.216628 -4.980984,-4.132629 -0.880917,-1.652769 -1.172071,-2.814265 -1.172071,-4.67572 0,-3.6902 1.822316,-6.797564 4.859874,-8.286927 1.188614,-0.582797 1.384433,-0.622164 3.094732,-0.622164 1.710299,0 1.906118,0.03937 3.094732,0.622164 2.21866,1.087844 3.777307,3.034198 4.581733,5.72142 0.366444,1.224121 0.361932,3.921894 -0.0086,5.160068 -0.747683,2.498273 -2.422526,4.584649 -4.545253,5.662089 -0.996908,0.506004 -1.418704,0.609965 -2.697584,0.664883 -0.83375,0.0358 -1.835698,-0.01513 -2.22655,-0.113184 l 0,0 z"
       id="path3056"
       inkscape:connector-curvature="0" />
  </g>
</svg>
